<svg width="44" height="44" viewBox="0 0 44 44" fill="none" xmlns="http://www.w3.org/2000/svg">
<path d="M21.9996 11.0047C15.9192 11.0047 11.0121 15.9119 11.0121 21.9922C11.0121 28.0726 15.9192 32.9797 21.9996 32.9797C28.0799 32.9797 32.9871 28.0726 32.9871 21.9922C32.9871 15.9119 28.0799 11.0047 21.9996 11.0047ZM21.9996 29.1333C18.0674 29.1333 14.8585 25.9244 14.8585 21.9922C14.8585 18.0601 18.0674 14.8511 21.9996 14.8511C25.9317 14.8511 29.1406 18.0601 29.1406 21.9922C29.1406 25.9244 25.9317 29.1333 21.9996 29.1333ZM33.4371 7.994C32.0174 7.994 30.871 9.14043 30.871 10.5601C30.871 11.9797 32.0174 13.1261 33.4371 13.1261C34.8567 13.1261 36.0031 11.9851 36.0031 10.5601C36.0036 10.223 35.9375 9.8891 35.8087 9.57758C35.6799 9.26606 35.4909 8.98301 35.2525 8.74465C35.0141 8.50628 34.7311 8.31728 34.4196 8.18847C34.108 8.05967 33.7742 7.99358 33.4371 7.994ZM43.4174 21.9922C43.4174 19.0351 43.4442 16.1047 43.2781 13.1529C43.1121 9.72436 42.3299 6.6815 39.8228 4.17436C37.3103 1.66186 34.2728 0.885076 30.8442 0.719004C27.8871 0.552933 24.9567 0.579718 22.0049 0.579718C19.0478 0.579718 16.1174 0.552933 13.1656 0.719004C9.73706 0.885076 6.6942 1.66722 4.18706 4.17436C1.67456 6.68686 0.897771 9.72436 0.731699 13.1529C0.565628 16.1101 0.592414 19.0404 0.592414 21.9922C0.592414 24.944 0.565628 27.8797 0.731699 30.8315C0.897771 34.2601 1.67991 37.3029 4.18706 39.8101C6.69956 42.3226 9.73706 43.0994 13.1656 43.2654C16.1228 43.4315 19.0531 43.4047 22.0049 43.4047C24.9621 43.4047 27.8924 43.4315 30.8442 43.2654C34.2728 43.0994 37.3156 42.3172 39.8228 39.8101C42.3353 37.2976 43.1121 34.2601 43.2781 30.8315C43.4496 27.8797 43.4174 24.9494 43.4174 21.9922ZM38.7031 34.6244C38.3121 35.5994 37.8406 36.3279 37.0853 37.0779C36.3299 37.8333 35.6067 38.3047 34.6317 38.6958C31.8138 39.8154 25.1228 39.5636 21.9996 39.5636C18.8763 39.5636 12.1799 39.8154 9.36206 38.7011C8.38706 38.3101 7.65849 37.8386 6.90849 37.0833C6.15313 36.3279 5.6817 35.6047 5.29063 34.6297C4.17634 31.8065 4.42813 25.1154 4.42813 21.9922C4.42813 18.869 4.17634 12.1726 5.29063 9.35472C5.6817 8.37972 6.15313 7.65115 6.90849 6.90115C7.66384 6.15115 8.38706 5.67436 9.36206 5.28329C12.1799 4.169 18.8763 4.42079 21.9996 4.42079C25.1228 4.42079 31.8192 4.169 34.6371 5.28329C35.6121 5.67436 36.3406 6.14579 37.0906 6.90115C37.846 7.6565 38.3174 8.37972 38.7085 9.35472C39.8228 12.1726 39.571 18.869 39.571 21.9922C39.571 25.1154 39.8228 31.8065 38.7031 34.6244Z" fill="#D7E4D7"/>
</svg>
