<svg width="118" height="24" viewBox="0 0 118 24" fill="none" xmlns="http://www.w3.org/2000/svg">
<path d="M8.20671 19.7251C3.27213 19.7251 0.211105 17.6141 0.0131941 13.8538L0 13.6031H5.14568L5.17207 13.7218C5.39637 14.751 6.68939 15.4371 8.27268 15.4371C9.94832 15.4371 10.9775 14.751 10.9775 13.801V13.7878C10.9775 12.8906 10.2122 12.5212 8.10115 12.1385L6.18802 11.7955C2.40132 11.1226 0.329852 9.20946 0.329852 6.25399V6.24079C0.329852 2.41451 3.62837 0 8.14074 0C13.2336 0 15.9384 2.26938 16.0968 5.83178L16.11 6.12205H10.9643L10.9511 5.9901C10.8455 4.94777 9.73722 4.28807 8.20671 4.28807C6.663 4.28807 5.87136 4.96097 5.87136 5.83178V5.84497C5.87136 6.70258 6.68939 7.1116 8.58933 7.45465L10.5025 7.79769C14.5794 8.53656 16.519 10.199 16.519 13.2864V13.2996C16.519 17.2314 13.4579 19.7251 8.20671 19.7251Z" fill="white"/>
<path d="M18.3661 19.3821V0.343046H23.7757V7.52062H23.8813C24.5937 5.5547 26.0847 4.49918 28.2881 4.49918C31.4942 4.49918 33.2886 6.53106 33.2886 10.0275V19.3821H27.8791V11.215C27.8791 9.75041 27.193 8.85322 25.834 8.85322C24.5542 8.85322 23.7757 9.84277 23.7757 11.2018V19.3821H18.3661Z" fill="white"/>
<path d="M39.7273 19.5668C36.785 19.5668 34.7795 17.6668 34.7795 15.16V15.1468C34.7795 12.3364 36.9434 10.7927 40.8224 10.5289L43.8835 10.331V9.73722C43.8835 8.8928 43.3425 8.36504 42.2342 8.36504C41.1259 8.36504 40.5058 8.85322 40.387 9.44695L40.3606 9.57889H35.5316L35.5448 9.40737C35.7691 6.4387 38.2892 4.49918 42.5377 4.49918C46.5882 4.49918 49.293 6.51787 49.293 9.47334V19.3821H43.8835V17.403H43.7779C42.9599 18.7883 41.6009 19.5668 39.7273 19.5668ZM40.0572 14.7642C40.0572 15.5294 40.7037 15.9384 41.7064 15.9384C42.9995 15.9384 43.8835 15.2259 43.8835 14.2628V13.3392L41.7196 13.4975C40.5717 13.5767 40.0572 14.0253 40.0572 14.751V14.7642Z" fill="white"/>
<path d="M51.4041 19.3821V0.343046H56.8136V10.0803H56.9192L60.4552 4.81583H66.4057L61.5635 11.0302L66.7488 19.3821H60.5344L57.5129 14.276L56.8136 15.1864V19.3821H51.4041Z" fill="white"/>
<path d="M73.8736 19.6987C69.1501 19.6987 66.2738 16.8356 66.2738 12.099V12.0858C66.2738 7.34909 69.1501 4.49918 73.702 4.49918C78.2408 4.49918 81.1435 7.34909 81.1435 11.7823V13.3128H71.5514C71.6042 14.9885 72.5014 15.978 73.9791 15.978C75.4041 15.978 76.1034 15.1204 76.2485 14.6982L76.2617 14.6586H81.0775L81.0379 14.8301C80.6025 16.7301 78.9401 19.6987 73.8736 19.6987ZM73.8472 8.2199C72.6729 8.2199 71.8549 8.95877 71.6174 10.2518H76.077C75.8395 8.95877 75.0214 8.2199 73.8472 8.2199Z" fill="white"/>
<path d="M91.4744 19.7251C86.4475 19.7251 83.0962 16.9412 83.0962 12.6003V0.343046H88.6905V12.0462C88.6905 14.0517 89.6668 15.16 91.4876 15.16C93.3084 15.16 94.2848 14.0517 94.2848 12.0462V0.343046H99.8791V12.6003C99.8791 16.9148 96.5673 19.7251 91.4744 19.7251Z" fill="white"/>
<path d="M102.214 24V4.81583H107.624V7.44145H107.743C108.429 5.59428 109.973 4.49918 112.031 4.49918C115.699 4.49918 117.744 7.20396 117.744 12.0858V12.099C117.744 16.9544 115.725 19.6987 112.097 19.6987C109.986 19.6987 108.402 18.63 107.73 16.862H107.624V24H102.214ZM109.933 15.3447C111.345 15.3447 112.255 14.1045 112.255 12.099V12.0858C112.255 10.0539 111.332 8.85322 109.933 8.85322C108.521 8.85322 107.598 10.0539 107.598 12.099V12.1121C107.598 14.144 108.508 15.3447 109.933 15.3447Z" fill="white"/>
</svg>
