<svg width="33" height="38" viewBox="0 0 33 38" fill="none" xmlns="http://www.w3.org/2000/svg">
<g filter="url(#filter0_iii_346_12454)">
<path d="M14.2144 1.77294L19.9441 11.5608L11.8601 13.8586C6.27687 12.0137 2.98871 8.46213 1.00534 4.8125C0.169525 3.27256 0.176244 0.445313 3.49934 0.445313H11.8951C12.364 0.445231 12.8248 0.567852 13.2317 0.800991C13.6386 1.03413 13.9774 1.36833 14.2144 1.77294Z" fill="#4686EC"/>
<path d="M14.2144 1.77294L19.9441 11.5608L11.8601 13.8586C6.27687 12.0137 2.98871 8.46213 1.00534 4.8125C0.169525 3.27256 0.176244 0.445313 3.49934 0.445313H11.8951C12.364 0.445231 12.8248 0.567852 13.2317 0.800991C13.6386 1.03413 13.9774 1.36833 14.2144 1.77294Z" fill="url(#paint0_radial_346_12454)"/>
<path d="M14.2144 1.77294L19.9441 11.5608L11.8601 13.8586C6.27687 12.0137 2.98871 8.46213 1.00534 4.8125C0.169525 3.27256 0.176244 0.445313 3.49934 0.445313H11.8951C12.364 0.445231 12.8248 0.567852 13.2317 0.800991C13.6386 1.03413 13.9774 1.36833 14.2144 1.77294Z" fill="url(#paint1_linear_346_12454)"/>
</g>
<g filter="url(#filter1_iii_346_12454)">
<path d="M19.2893 1.77233L13.5596 11.5602L21.6436 13.858C27.2269 12.0117 30.515 8.46017 32.4984 4.81055C33.3342 3.27061 33.3275 0.443359 30.0044 0.443359H21.6086C21.1397 0.443278 20.6789 0.565898 20.272 0.799037C19.8652 1.03218 19.5264 1.36772 19.2893 1.77233Z" fill="#4686EC"/>
<path d="M19.2893 1.77233L13.5596 11.5602L21.6436 13.858C27.2269 12.0117 30.515 8.46017 32.4984 4.81055C33.3342 3.27061 33.3275 0.443359 30.0044 0.443359H21.6086C21.1397 0.443278 20.6789 0.565898 20.272 0.799037C19.8652 1.03218 19.5264 1.36772 19.2893 1.77233Z" fill="url(#paint2_radial_346_12454)"/>
<path d="M19.2893 1.77233L13.5596 11.5602L21.6436 13.858C27.2269 12.0117 30.515 8.46017 32.4984 4.81055C33.3342 3.27061 33.3275 0.443359 30.0044 0.443359H21.6086C21.1397 0.443278 20.6789 0.565898 20.272 0.799037C19.8652 1.03218 19.5264 1.36772 19.2893 1.77233Z" fill="url(#paint3_linear_346_12454)"/>
</g>
<path d="M19.2893 1.77233L13.5596 11.5602L21.6436 13.858C27.2269 12.0117 30.515 8.46017 32.4984 4.81055C33.3342 3.27061 33.3275 0.443359 30.0044 0.443359H21.6086C21.1397 0.443278 20.6789 0.565898 20.272 0.799037C19.8652 1.03218 19.5264 1.36772 19.2893 1.77233Z" fill="url(#paint4_linear_346_12454)"/>
<path d="M16.919 37.5538C24.3759 37.5538 30.421 31.5088 30.421 24.0518C30.421 16.5949 24.3759 10.5498 16.919 10.5498C9.46204 10.5498 3.41699 16.5949 3.41699 24.0518C3.41699 31.5088 9.46204 37.5538 16.919 37.5538Z" fill="url(#paint5_linear_346_12454)"/>
<path d="M16.919 37.5538C24.3759 37.5538 30.421 31.5088 30.421 24.0518C30.421 16.5949 24.3759 10.5498 16.919 10.5498C9.46204 10.5498 3.41699 16.5949 3.41699 24.0518C3.41699 31.5088 9.46204 37.5538 16.919 37.5538Z" fill="url(#paint6_linear_346_12454)"/>
<path d="M16.9177 35.7269C23.3653 35.7269 28.5922 30.5001 28.5922 24.0524C28.5922 17.6048 23.3653 12.3779 16.9177 12.3779C10.47 12.3779 5.24316 17.6048 5.24316 24.0524C5.24316 30.5001 10.47 35.7269 16.9177 35.7269Z" fill="url(#paint7_linear_346_12454)"/>
<path d="M16.917 34.245C22.546 34.245 27.1093 29.6818 27.1093 24.0527C27.1093 18.4236 22.546 13.8604 16.917 13.8604C11.2879 13.8604 6.72461 18.4236 6.72461 24.0527C6.72461 29.6818 11.2879 34.245 16.917 34.245Z" fill="url(#paint8_linear_346_12454)"/>
<path d="M16.917 34.245C22.546 34.245 27.1093 29.6818 27.1093 24.0527C27.1093 18.4236 22.546 13.8604 16.917 13.8604C11.2879 13.8604 6.72461 18.4236 6.72461 24.0527C6.72461 29.6818 11.2879 34.245 16.917 34.245Z" fill="url(#paint9_radial_346_12454)"/>
<path d="M16.917 34.245C22.546 34.245 27.1093 29.6818 27.1093 24.0527C27.1093 18.4236 22.546 13.8604 16.917 13.8604C11.2879 13.8604 6.72461 18.4236 6.72461 24.0527C6.72461 29.6818 11.2879 34.245 16.917 34.245Z" fill="url(#paint10_radial_346_12454)"/>
<path d="M16.917 34.245C22.546 34.245 27.1093 29.6818 27.1093 24.0527C27.1093 18.4236 22.546 13.8604 16.917 13.8604C11.2879 13.8604 6.72461 18.4236 6.72461 24.0527C6.72461 29.6818 11.2879 34.245 16.917 34.245Z" fill="url(#paint11_radial_346_12454)"/>
<g filter="url(#filter2_ii_346_12454)">
<path d="M19.5916 30.0175H14.2569C13.9999 30.0181 13.7481 29.945 13.5314 29.8069C13.3147 29.6687 13.1421 29.4713 13.0341 29.2381C12.9229 29.0068 12.8802 28.7484 12.9112 28.4936C12.9421 28.2388 13.0454 27.9982 13.2088 27.8003L17.6432 22.3581C17.9926 21.9281 17.8313 21.4712 17.7776 21.3368C17.7145 21.1808 17.607 21.0467 17.4685 20.9512C17.33 20.8556 17.1664 20.8028 16.9982 20.7993H16.931C16.501 20.7993 16.1113 21.0009 15.856 21.3503C15.426 21.955 14.5794 22.1028 13.9613 21.6728C13.8155 21.5697 13.6915 21.4389 13.5964 21.2878C13.5013 21.1367 13.4369 20.9684 13.4069 20.7923C13.377 20.6163 13.382 20.4362 13.4218 20.2621C13.4616 20.0881 13.5354 19.9236 13.6388 19.7781C14.3913 18.7165 15.6141 18.085 16.9176 18.085H17.0923C18.4629 18.1521 19.6588 18.9718 20.2232 20.2215C20.801 21.5115 20.6129 22.9762 19.726 24.0646L17.1057 27.2896H19.5782C20.3307 27.2896 20.9354 27.8943 20.9354 28.6468C20.9354 29.3993 20.3441 30.0175 19.5916 30.0175Z" fill="#6A6372"/>
</g>
<defs>
<filter id="filter0_iii_346_12454" x="0.0940755" y="0.0869791" width="20.2086" height="14.2193" filterUnits="userSpaceOnUse" color-interpolation-filters="sRGB">
<feFlood flood-opacity="0" result="BackgroundImageFix"/>
<feBlend mode="normal" in="SourceGraphic" in2="BackgroundImageFix" result="shape"/>
<feColorMatrix in="SourceAlpha" type="matrix" values="0 0 0 0 0 0 0 0 0 0 0 0 0 0 0 0 0 0 127 0" result="hardAlpha"/>
<feOffset dx="-0.358333" dy="-0.358333"/>
<feGaussianBlur stdDeviation="0.358333"/>
<feComposite in2="hardAlpha" operator="arithmetic" k2="-1" k3="1"/>
<feColorMatrix type="matrix" values="0 0 0 0 0.317647 0 0 0 0 0.458824 0 0 0 0 0.886275 0 0 0 1 0"/>
<feBlend mode="normal" in2="shape" result="effect1_innerShadow_346_12454"/>
<feColorMatrix in="SourceAlpha" type="matrix" values="0 0 0 0 0 0 0 0 0 0 0 0 0 0 0 0 0 0 127 0" result="hardAlpha"/>
<feOffset dx="0.358333" dy="0.358333"/>
<feGaussianBlur stdDeviation="0.358333"/>
<feComposite in2="hardAlpha" operator="arithmetic" k2="-1" k3="1"/>
<feColorMatrix type="matrix" values="0 0 0 0 0.317647 0 0 0 0 0.458824 0 0 0 0 0.886275 0 0 0 1 0"/>
<feBlend mode="normal" in2="effect1_innerShadow_346_12454" result="effect2_innerShadow_346_12454"/>
<feColorMatrix in="SourceAlpha" type="matrix" values="0 0 0 0 0 0 0 0 0 0 0 0 0 0 0 0 0 0 127 0" result="hardAlpha"/>
<feOffset dx="-0.447917" dy="0.447917"/>
<feGaussianBlur stdDeviation="0.447917"/>
<feComposite in2="hardAlpha" operator="arithmetic" k2="-1" k3="1"/>
<feColorMatrix type="matrix" values="0 0 0 0 0.372549 0 0 0 0 0.607843 0 0 0 0 0.960784 0 0 0 1 0"/>
<feBlend mode="normal" in2="effect2_innerShadow_346_12454" result="effect3_innerShadow_346_12454"/>
</filter>
<filter id="filter1_iii_346_12454" x="13.1117" y="0.085026" width="20.2086" height="14.2213" filterUnits="userSpaceOnUse" color-interpolation-filters="sRGB">
<feFlood flood-opacity="0" result="BackgroundImageFix"/>
<feBlend mode="normal" in="SourceGraphic" in2="BackgroundImageFix" result="shape"/>
<feColorMatrix in="SourceAlpha" type="matrix" values="0 0 0 0 0 0 0 0 0 0 0 0 0 0 0 0 0 0 127 0" result="hardAlpha"/>
<feOffset dx="-0.358333" dy="-0.358333"/>
<feGaussianBlur stdDeviation="0.358333"/>
<feComposite in2="hardAlpha" operator="arithmetic" k2="-1" k3="1"/>
<feColorMatrix type="matrix" values="0 0 0 0 0.317647 0 0 0 0 0.458824 0 0 0 0 0.886275 0 0 0 1 0"/>
<feBlend mode="normal" in2="shape" result="effect1_innerShadow_346_12454"/>
<feColorMatrix in="SourceAlpha" type="matrix" values="0 0 0 0 0 0 0 0 0 0 0 0 0 0 0 0 0 0 127 0" result="hardAlpha"/>
<feOffset dx="0.358333" dy="0.358333"/>
<feGaussianBlur stdDeviation="0.358333"/>
<feComposite in2="hardAlpha" operator="arithmetic" k2="-1" k3="1"/>
<feColorMatrix type="matrix" values="0 0 0 0 0.317647 0 0 0 0 0.458824 0 0 0 0 0.886275 0 0 0 1 0"/>
<feBlend mode="normal" in2="effect1_innerShadow_346_12454" result="effect2_innerShadow_346_12454"/>
<feColorMatrix in="SourceAlpha" type="matrix" values="0 0 0 0 0 0 0 0 0 0 0 0 0 0 0 0 0 0 127 0" result="hardAlpha"/>
<feOffset dx="-0.447917" dy="0.447917"/>
<feGaussianBlur stdDeviation="0.447917"/>
<feComposite in2="hardAlpha" operator="arithmetic" k2="-1" k3="1"/>
<feColorMatrix type="matrix" values="0 0 0 0 0.372549 0 0 0 0 0.607843 0 0 0 0 0.960784 0 0 0 1 0"/>
<feBlend mode="normal" in2="effect2_innerShadow_346_12454" result="effect3_innerShadow_346_12454"/>
</filter>
<filter id="filter2_ii_346_12454" x="12.3639" y="17.7266" width="8.93001" height="12.8285" filterUnits="userSpaceOnUse" color-interpolation-filters="sRGB">
<feFlood flood-opacity="0" result="BackgroundImageFix"/>
<feBlend mode="normal" in="SourceGraphic" in2="BackgroundImageFix" result="shape"/>
<feColorMatrix in="SourceAlpha" type="matrix" values="0 0 0 0 0 0 0 0 0 0 0 0 0 0 0 0 0 0 127 0" result="hardAlpha"/>
<feOffset dx="-0.5375" dy="0.5375"/>
<feGaussianBlur stdDeviation="0.5375"/>
<feComposite in2="hardAlpha" operator="arithmetic" k2="-1" k3="1"/>
<feColorMatrix type="matrix" values="0 0 0 0 0.286275 0 0 0 0 0.223529 0 0 0 0 0.345098 0 0 0 1 0"/>
<feBlend mode="normal" in2="shape" result="effect1_innerShadow_346_12454"/>
<feColorMatrix in="SourceAlpha" type="matrix" values="0 0 0 0 0 0 0 0 0 0 0 0 0 0 0 0 0 0 127 0" result="hardAlpha"/>
<feOffset dx="0.358333" dy="-0.358333"/>
<feGaussianBlur stdDeviation="0.358333"/>
<feComposite in2="hardAlpha" operator="arithmetic" k2="-1" k3="1"/>
<feColorMatrix type="matrix" values="0 0 0 0 0.482353 0 0 0 0 0.47451 0 0 0 0 0.490196 0 0 0 1 0"/>
<feBlend mode="normal" in2="effect1_innerShadow_346_12454" result="effect2_innerShadow_346_12454"/>
</filter>
<radialGradient id="paint0_radial_346_12454" cx="0" cy="0" r="1" gradientUnits="userSpaceOnUse" gradientTransform="translate(12.9629 12.9116) rotate(-123.321) scale(6.18598 23.1022)">
<stop stop-color="#3669D9"/>
<stop offset="1" stop-color="#3669D9" stop-opacity="0"/>
</radialGradient>
<linearGradient id="paint1_linear_346_12454" x1="4.19943" y1="-0.281656" x2="6.61146" y2="5.72491" gradientUnits="userSpaceOnUse">
<stop stop-color="#3D89EC"/>
<stop offset="1" stop-color="#3D89EC" stop-opacity="0"/>
</linearGradient>
<radialGradient id="paint2_radial_346_12454" cx="0" cy="0" r="1" gradientUnits="userSpaceOnUse" gradientTransform="translate(20.5412 12.9119) rotate(-57.265) scale(4.09669 8.9861)">
<stop stop-color="#3669D9"/>
<stop offset="1" stop-color="#3669D9" stop-opacity="0"/>
</radialGradient>
<linearGradient id="paint3_linear_346_12454" x1="29.3043" y1="-0.282266" x2="26.8923" y2="5.7243" gradientUnits="userSpaceOnUse">
<stop stop-color="#3D89EC"/>
<stop offset="1" stop-color="#3D89EC" stop-opacity="0"/>
</linearGradient>
<linearGradient id="paint4_linear_346_12454" x1="16.5172" y1="6.49023" x2="16.97" y2="6.74152" gradientUnits="userSpaceOnUse">
<stop stop-color="#1A6DD8"/>
<stop offset="1" stop-color="#1A6DD8" stop-opacity="0"/>
</linearGradient>
<linearGradient id="paint5_linear_346_12454" x1="27.3331" y1="17.0724" x2="14.773" y2="28.5561" gradientUnits="userSpaceOnUse">
<stop stop-color="#EFEAF6"/>
<stop offset="1" stop-color="#B5A8C3"/>
</linearGradient>
<linearGradient id="paint6_linear_346_12454" x1="12.2011" y1="38.2096" x2="15.246" y2="20.5513" gradientUnits="userSpaceOnUse">
<stop stop-color="#D0A9F4"/>
<stop offset="1" stop-color="#D0A9F4" stop-opacity="0"/>
</linearGradient>
<linearGradient id="paint7_linear_346_12454" x1="27.5548" y1="22.0113" x2="16.9177" y2="22.0113" gradientUnits="userSpaceOnUse">
<stop stop-color="#D3C6E2"/>
<stop offset="1" stop-color="#D6C6E8"/>
</linearGradient>
<linearGradient id="paint8_linear_346_12454" x1="10.5194" y1="26.7012" x2="27.4815" y2="21.5681" gradientUnits="userSpaceOnUse">
<stop stop-color="#E0D3EF"/>
<stop offset="1" stop-color="#C1B0D4"/>
</linearGradient>
<radialGradient id="paint9_radial_346_12454" cx="0" cy="0" r="1" gradientUnits="userSpaceOnUse" gradientTransform="translate(20.7849 22.5078) rotate(156.644) scale(15.3147 13.0498)">
<stop offset="0.837" stop-color="#F6ECFE" stop-opacity="0"/>
<stop offset="1" stop-color="#F6ECFE"/>
</radialGradient>
<radialGradient id="paint10_radial_346_12454" cx="0" cy="0" r="1" gradientUnits="userSpaceOnUse" gradientTransform="translate(15.6152 25.2611) rotate(-41.294) scale(12.0453 11.5659)">
<stop offset="0.91" stop-color="#B396CF" stop-opacity="0"/>
<stop offset="0.992" stop-color="#B796D5"/>
</radialGradient>
<radialGradient id="paint11_radial_346_12454" cx="0" cy="0" r="1" gradientUnits="userSpaceOnUse" gradientTransform="translate(16.6227 23.2034) rotate(37.9308) scale(11.3398 12.8507)">
<stop offset="0.926" stop-color="#AB9CBB" stop-opacity="0"/>
<stop offset="1" stop-color="#AB9CBB"/>
</radialGradient>
</defs>
</svg>
