<svg width="35" height="39" viewBox="0 0 35 39" fill="none" xmlns="http://www.w3.org/2000/svg">
<g filter="url(#filter0_iii_346_12474)">
<path d="M14.9761 1.91212L20.8724 11.9845L12.5534 14.3491C6.80784 12.4505 3.4241 8.79576 1.38306 5.04004C0.522955 3.45534 0.529869 0.545898 3.94956 0.545898H12.5894C13.0719 0.545815 13.5461 0.672 13.9648 0.911916C14.3835 1.15183 14.7322 1.49575 14.9761 1.91212Z" fill="#4686EC"/>
<path d="M14.9761 1.91212L20.8724 11.9845L12.5534 14.3491C6.80784 12.4505 3.4241 8.79576 1.38306 5.04004C0.522955 3.45534 0.529869 0.545898 3.94956 0.545898H12.5894C13.0719 0.545815 13.5461 0.672 13.9648 0.911916C14.3835 1.15183 14.7322 1.49575 14.9761 1.91212Z" fill="url(#paint0_radial_346_12474)"/>
<path d="M14.9761 1.91212L20.8724 11.9845L12.5534 14.3491C6.80784 12.4505 3.4241 8.79576 1.38306 5.04004C0.522955 3.45534 0.529869 0.545898 3.94956 0.545898H12.5894C13.0719 0.545815 13.5461 0.672 13.9648 0.911916C14.3835 1.15183 14.7322 1.49575 14.9761 1.91212Z" fill="url(#paint1_linear_346_12474)"/>
</g>
<g filter="url(#filter1_iii_346_12474)">
<path d="M20.1981 1.91252L14.3018 11.9849L22.6208 14.3495C28.3663 12.4496 31.7501 8.79478 33.7911 5.03906C34.6512 3.45436 34.6443 0.544922 31.2246 0.544922H22.5848C22.1022 0.544838 21.628 0.671023 21.2093 0.910939C20.7906 1.15086 20.442 1.49615 20.1981 1.91252Z" fill="#4686EC"/>
<path d="M20.1981 1.91252L14.3018 11.9849L22.6208 14.3495C28.3663 12.4496 31.7501 8.79478 33.7911 5.03906C34.6512 3.45436 34.6443 0.544922 31.2246 0.544922H22.5848C22.1022 0.544838 21.628 0.671023 21.2093 0.910939C20.7906 1.15086 20.442 1.49615 20.1981 1.91252Z" fill="url(#paint2_radial_346_12474)"/>
<path d="M20.1981 1.91252L14.3018 11.9849L22.6208 14.3495C28.3663 12.4496 31.7501 8.79478 33.7911 5.03906C34.6512 3.45436 34.6443 0.544922 31.2246 0.544922H22.5848C22.1022 0.544838 21.628 0.671023 21.2093 0.910939C20.7906 1.15086 20.442 1.49615 20.1981 1.91252Z" fill="url(#paint3_linear_346_12474)"/>
</g>
<path d="M20.199 1.91155L14.3027 11.984L22.6217 14.3486C28.3673 12.4486 31.7511 8.79381 33.7921 5.03809C34.6522 3.45338 34.6453 0.543945 31.2256 0.543945H22.5858C22.1032 0.543862 21.629 0.670046 21.2103 0.909963C20.7916 1.14988 20.443 1.49518 20.199 1.91155Z" fill="url(#paint4_linear_346_12474)"/>
<path d="M17.7588 38.7324C25.4325 38.7324 31.6533 32.5116 31.6533 24.8379C31.6533 17.1641 25.4325 10.9434 17.7588 10.9434C10.085 10.9434 3.86426 17.1641 3.86426 24.8379C3.86426 32.5116 10.085 38.7324 17.7588 38.7324Z" fill="url(#paint5_linear_346_12474)"/>
<path d="M17.7588 38.7324C25.4325 38.7324 31.6533 32.5116 31.6533 24.8379C31.6533 17.1641 25.4325 10.9434 17.7588 10.9434C10.085 10.9434 3.86426 17.1641 3.86426 24.8379C3.86426 32.5116 10.085 38.7324 17.7588 38.7324Z" fill="url(#paint6_linear_346_12474)"/>
<path d="M17.758 36.8529C24.3931 36.8529 29.7719 31.4741 29.7719 24.8391C29.7719 18.204 24.3931 12.8252 17.758 12.8252C11.1229 12.8252 5.74414 18.204 5.74414 24.8391C5.74414 31.4741 11.1229 36.8529 17.758 36.8529Z" fill="url(#paint7_linear_346_12474)"/>
<path d="M17.7582 35.3279C23.5509 35.3279 28.2468 30.6319 28.2468 24.8392C28.2468 19.0465 23.5509 14.3506 17.7582 14.3506C11.9655 14.3506 7.26953 19.0465 7.26953 24.8392C7.26953 30.6319 11.9655 35.3279 17.7582 35.3279Z" fill="url(#paint8_linear_346_12474)"/>
<path d="M17.7582 35.3279C23.5509 35.3279 28.2468 30.6319 28.2468 24.8392C28.2468 19.0465 23.5509 14.3506 17.7582 14.3506C11.9655 14.3506 7.26953 19.0465 7.26953 24.8392C7.26953 30.6319 11.9655 35.3279 17.7582 35.3279Z" fill="url(#paint9_radial_346_12474)"/>
<path d="M17.7582 35.3279C23.5509 35.3279 28.2468 30.6319 28.2468 24.8392C28.2468 19.0465 23.5509 14.3506 17.7582 14.3506C11.9655 14.3506 7.26953 19.0465 7.26953 24.8392C7.26953 30.6319 11.9655 35.3279 17.7582 35.3279Z" fill="url(#paint10_radial_346_12474)"/>
<path d="M17.7582 35.3279C23.5509 35.3279 28.2468 30.6319 28.2468 24.8392C28.2468 19.0465 23.5509 14.3506 17.7582 14.3506C11.9655 14.3506 7.26953 19.0465 7.26953 24.8392C7.26953 30.6319 11.9655 35.3279 17.7582 35.3279Z" fill="url(#paint11_radial_346_12474)"/>
<g filter="url(#filter2_iii_346_12474)">
<path d="M19.7113 22.8246L21.1577 20.3217C21.2757 20.1164 21.3377 19.8837 21.3377 19.6469C21.3377 19.4101 21.2757 19.1774 21.1577 18.9721C21.0404 18.7666 20.8707 18.5957 20.666 18.477C20.4612 18.3582 20.2287 18.2957 19.992 18.2959H15.715C15.3569 18.2959 15.0134 18.4382 14.7602 18.6914C14.5069 18.9446 14.3647 19.2881 14.3647 19.6462C14.3647 20.0043 14.5069 20.3478 14.7602 20.601C15.0134 20.8543 15.3569 20.9965 15.715 20.9965H17.0591C17.1196 20.9966 17.1791 21.0125 17.2316 21.0427C17.284 21.0729 17.3276 21.1164 17.358 21.1687C17.3884 21.2211 17.4045 21.2805 17.4047 21.3411C17.4049 21.4016 17.3892 21.4611 17.3592 21.5137L16.6152 22.8108C16.425 23.0456 16.3206 23.3383 16.3193 23.6405C16.3193 24.3858 16.925 24.9901 17.6703 24.9901C18.5138 24.9901 19.2024 25.6787 19.2024 26.5223C19.2024 27.3658 18.5138 28.0558 17.6703 28.0558C17.3557 28.0562 17.0488 27.9591 16.7918 27.7778C16.5347 27.5965 16.3402 27.34 16.2349 27.0436C16.1145 26.7089 15.8667 26.4354 15.5456 26.2826C15.2244 26.1298 14.8559 26.11 14.5202 26.2277C14.3535 26.286 14.2 26.3767 14.0686 26.4946C13.9372 26.6126 13.8304 26.7554 13.7546 26.9148C13.6787 27.0743 13.6352 27.2472 13.6266 27.4236C13.618 27.6 13.6444 27.7763 13.7044 27.9424C13.9983 28.7593 14.5363 29.466 15.2455 29.9666C15.9547 30.4673 16.8008 30.7377 17.6689 30.7412C18.7874 30.7405 19.8599 30.2959 20.6509 29.5052C21.4419 28.7144 21.8868 27.6421 21.8879 26.5236C21.8862 25.769 21.6833 25.0285 21.3003 24.3783C20.9172 23.7282 20.3678 23.1918 19.7086 22.8246" fill="#6C3F48"/>
</g>
<defs>
<filter id="filter0_iii_346_12474" x="0.445312" y="0.177148" width="20.7955" height="14.6334" filterUnits="userSpaceOnUse" color-interpolation-filters="sRGB">
<feFlood flood-opacity="0" result="BackgroundImageFix"/>
<feBlend mode="normal" in="SourceGraphic" in2="BackgroundImageFix" result="shape"/>
<feColorMatrix in="SourceAlpha" type="matrix" values="0 0 0 0 0 0 0 0 0 0 0 0 0 0 0 0 0 0 127 0" result="hardAlpha"/>
<feOffset dx="-0.36875" dy="-0.36875"/>
<feGaussianBlur stdDeviation="0.36875"/>
<feComposite in2="hardAlpha" operator="arithmetic" k2="-1" k3="1"/>
<feColorMatrix type="matrix" values="0 0 0 0 0.317647 0 0 0 0 0.458824 0 0 0 0 0.886275 0 0 0 1 0"/>
<feBlend mode="normal" in2="shape" result="effect1_innerShadow_346_12474"/>
<feColorMatrix in="SourceAlpha" type="matrix" values="0 0 0 0 0 0 0 0 0 0 0 0 0 0 0 0 0 0 127 0" result="hardAlpha"/>
<feOffset dx="0.36875" dy="0.36875"/>
<feGaussianBlur stdDeviation="0.36875"/>
<feComposite in2="hardAlpha" operator="arithmetic" k2="-1" k3="1"/>
<feColorMatrix type="matrix" values="0 0 0 0 0.317647 0 0 0 0 0.458824 0 0 0 0 0.886275 0 0 0 1 0"/>
<feBlend mode="normal" in2="effect1_innerShadow_346_12474" result="effect2_innerShadow_346_12474"/>
<feColorMatrix in="SourceAlpha" type="matrix" values="0 0 0 0 0 0 0 0 0 0 0 0 0 0 0 0 0 0 127 0" result="hardAlpha"/>
<feOffset dx="-0.460938" dy="0.460938"/>
<feGaussianBlur stdDeviation="0.460938"/>
<feComposite in2="hardAlpha" operator="arithmetic" k2="-1" k3="1"/>
<feColorMatrix type="matrix" values="0 0 0 0 0.372549 0 0 0 0 0.607843 0 0 0 0 0.960784 0 0 0 1 0"/>
<feBlend mode="normal" in2="effect2_innerShadow_346_12474" result="effect3_innerShadow_346_12474"/>
</filter>
<filter id="filter1_iii_346_12474" x="13.8408" y="0.176172" width="20.7955" height="14.6344" filterUnits="userSpaceOnUse" color-interpolation-filters="sRGB">
<feFlood flood-opacity="0" result="BackgroundImageFix"/>
<feBlend mode="normal" in="SourceGraphic" in2="BackgroundImageFix" result="shape"/>
<feColorMatrix in="SourceAlpha" type="matrix" values="0 0 0 0 0 0 0 0 0 0 0 0 0 0 0 0 0 0 127 0" result="hardAlpha"/>
<feOffset dx="-0.36875" dy="-0.36875"/>
<feGaussianBlur stdDeviation="0.36875"/>
<feComposite in2="hardAlpha" operator="arithmetic" k2="-1" k3="1"/>
<feColorMatrix type="matrix" values="0 0 0 0 0.317647 0 0 0 0 0.458824 0 0 0 0 0.886275 0 0 0 1 0"/>
<feBlend mode="normal" in2="shape" result="effect1_innerShadow_346_12474"/>
<feColorMatrix in="SourceAlpha" type="matrix" values="0 0 0 0 0 0 0 0 0 0 0 0 0 0 0 0 0 0 127 0" result="hardAlpha"/>
<feOffset dx="0.36875" dy="0.36875"/>
<feGaussianBlur stdDeviation="0.36875"/>
<feComposite in2="hardAlpha" operator="arithmetic" k2="-1" k3="1"/>
<feColorMatrix type="matrix" values="0 0 0 0 0.317647 0 0 0 0 0.458824 0 0 0 0 0.886275 0 0 0 1 0"/>
<feBlend mode="normal" in2="effect1_innerShadow_346_12474" result="effect2_innerShadow_346_12474"/>
<feColorMatrix in="SourceAlpha" type="matrix" values="0 0 0 0 0 0 0 0 0 0 0 0 0 0 0 0 0 0 127 0" result="hardAlpha"/>
<feOffset dx="-0.460938" dy="0.460938"/>
<feGaussianBlur stdDeviation="0.460938"/>
<feComposite in2="hardAlpha" operator="arithmetic" k2="-1" k3="1"/>
<feColorMatrix type="matrix" values="0 0 0 0 0.372549 0 0 0 0 0.607843 0 0 0 0 0.960784 0 0 0 1 0"/>
<feBlend mode="normal" in2="effect2_innerShadow_346_12474" result="effect3_innerShadow_346_12474"/>
</filter>
<filter id="filter2_iii_346_12474" x="13.0719" y="17.9271" width="9.18457" height="13.3672" filterUnits="userSpaceOnUse" color-interpolation-filters="sRGB">
<feFlood flood-opacity="0" result="BackgroundImageFix"/>
<feBlend mode="normal" in="SourceGraphic" in2="BackgroundImageFix" result="shape"/>
<feColorMatrix in="SourceAlpha" type="matrix" values="0 0 0 0 0 0 0 0 0 0 0 0 0 0 0 0 0 0 127 0" result="hardAlpha"/>
<feOffset dx="-0.553125" dy="0.553125"/>
<feGaussianBlur stdDeviation="0.553125"/>
<feComposite in2="hardAlpha" operator="arithmetic" k2="-1" k3="1"/>
<feColorMatrix type="matrix" values="0 0 0 0 0.270588 0 0 0 0 0.113725 0 0 0 0 0.0745098 0 0 0 1 0"/>
<feBlend mode="normal" in2="shape" result="effect1_innerShadow_346_12474"/>
<feColorMatrix in="SourceAlpha" type="matrix" values="0 0 0 0 0 0 0 0 0 0 0 0 0 0 0 0 0 0 127 0" result="hardAlpha"/>
<feOffset dx="0.36875" dy="-0.36875"/>
<feGaussianBlur stdDeviation="0.36875"/>
<feComposite in2="hardAlpha" operator="arithmetic" k2="-1" k3="1"/>
<feColorMatrix type="matrix" values="0 0 0 0 0.490196 0 0 0 0 0.352941 0 0 0 0 0.321569 0 0 0 1 0"/>
<feBlend mode="normal" in2="effect1_innerShadow_346_12474" result="effect2_innerShadow_346_12474"/>
<feColorMatrix in="SourceAlpha" type="matrix" values="0 0 0 0 0 0 0 0 0 0 0 0 0 0 0 0 0 0 127 0" result="hardAlpha"/>
<feOffset dx="0.36875" dy="0.36875"/>
<feGaussianBlur stdDeviation="0.36875"/>
<feComposite in2="hardAlpha" operator="arithmetic" k2="-1" k3="1"/>
<feColorMatrix type="matrix" values="0 0 0 0 0.270588 0 0 0 0 0.113725 0 0 0 0 0.0745098 0 0 0 1 0"/>
<feBlend mode="normal" in2="effect2_innerShadow_346_12474" result="effect3_innerShadow_346_12474"/>
</filter>
<radialGradient id="paint0_radial_346_12474" cx="0" cy="0" r="1" gradientUnits="userSpaceOnUse" gradientTransform="translate(13.6882 13.3746) rotate(-123.321) scale(6.3658 23.7737)">
<stop stop-color="#3669D9"/>
<stop offset="1" stop-color="#3669D9" stop-opacity="0"/>
</radialGradient>
<linearGradient id="paint1_linear_346_12474" x1="4.67001" y1="-0.202203" x2="7.15216" y2="5.97897" gradientUnits="userSpaceOnUse">
<stop stop-color="#3D89EC"/>
<stop offset="1" stop-color="#3D89EC" stop-opacity="0"/>
</linearGradient>
<radialGradient id="paint2_radial_346_12474" cx="0" cy="0" r="1" gradientUnits="userSpaceOnUse" gradientTransform="translate(21.4864 13.3759) rotate(-57.265) scale(4.21578 9.24732)">
<stop stop-color="#3669D9"/>
<stop offset="1" stop-color="#3669D9" stop-opacity="0"/>
</radialGradient>
<linearGradient id="paint3_linear_346_12474" x1="30.5042" y1="-0.201797" x2="28.022" y2="5.97937" gradientUnits="userSpaceOnUse">
<stop stop-color="#3D89EC"/>
<stop offset="1" stop-color="#3D89EC" stop-opacity="0"/>
</linearGradient>
<linearGradient id="paint4_linear_346_12474" x1="17.3463" y1="6.7666" x2="17.8123" y2="7.02519" gradientUnits="userSpaceOnUse">
<stop stop-color="#1A6DD8"/>
<stop offset="1" stop-color="#1A6DD8" stop-opacity="0"/>
</linearGradient>
<linearGradient id="paint5_linear_346_12474" x1="28.4756" y1="17.6555" x2="15.5504" y2="29.473" gradientUnits="userSpaceOnUse">
<stop stop-color="#F6BC7F"/>
<stop offset="1" stop-color="#A76740"/>
</linearGradient>
<linearGradient id="paint6_linear_346_12474" x1="12.9037" y1="39.4072" x2="16.0372" y2="21.2356" gradientUnits="userSpaceOnUse">
<stop stop-color="#B05B5B"/>
<stop offset="1" stop-color="#B05B5B" stop-opacity="0"/>
</linearGradient>
<linearGradient id="paint7_linear_346_12474" x1="28.7044" y1="22.7386" x2="17.758" y2="22.7386" gradientUnits="userSpaceOnUse">
<stop stop-color="#CD8858"/>
<stop offset="1" stop-color="#D28D59"/>
</linearGradient>
<linearGradient id="paint8_linear_346_12474" x1="11.1746" y1="27.5647" x2="28.6298" y2="22.2824" gradientUnits="userSpaceOnUse">
<stop stop-color="#D38E5F"/>
<stop offset="1" stop-color="#BE794E"/>
</linearGradient>
<radialGradient id="paint9_radial_346_12474" cx="0" cy="0" r="1" gradientUnits="userSpaceOnUse" gradientTransform="translate(21.7385 23.2494) rotate(156.644) scale(15.7599 13.4292)">
<stop offset="0.837" stop-color="#E5AC75" stop-opacity="0"/>
<stop offset="1" stop-color="#E5AC75"/>
</radialGradient>
<radialGradient id="paint10_radial_346_12474" cx="0" cy="0" r="1" gradientUnits="userSpaceOnUse" gradientTransform="translate(16.4185 26.0828) rotate(-41.294) scale(12.3955 11.9021)">
<stop offset="0.91" stop-color="#B36441" stop-opacity="0"/>
<stop offset="1" stop-color="#B36441"/>
</radialGradient>
<radialGradient id="paint11_radial_346_12474" cx="0" cy="0" r="1" gradientUnits="userSpaceOnUse" gradientTransform="translate(17.4553 23.9653) rotate(37.9308) scale(11.6695 13.2243)">
<stop offset="0.926" stop-color="#AB662B" stop-opacity="0"/>
<stop offset="1" stop-color="#AB662B"/>
</radialGradient>
</defs>
</svg>
